<svg width="400" height="400" viewBox="0 0 400 400" fill="none" xmlns="http://www.w3.org/2000/svg">
<rect x="269.113" y="117.568" width="18.9587" height="99.031" transform="rotate(-120 269.113 117.568)" fill="#C79944" stroke="black" stroke-width="2"/>
<rect x="41.5431" y="68.2344" width="18.9587" height="99.031" transform="rotate(-60 41.5431 68.2344)" fill="#C79944" stroke="black" stroke-width="2"/>
<rect x="123.311" y="53.8181" width="18.9587" height="126.364" fill="#C79944" stroke="black" stroke-width="2"/>
<rect x="254.458" y="53.8181" width="18.9587" height="126.364" fill="#C79944" stroke="black" stroke-width="2"/>
<rect x="124.027" y="178.737" width="18.9587" height="92.4463" transform="rotate(-45 124.027 178.737)" fill="#C79944" stroke="black" stroke-width="2"/>
<rect x="200.745" y="255.493" width="18.9587" height="103.752" transform="rotate(-135 200.745 255.493)" fill="#C79944" stroke="black" stroke-width="2"/>
<rect x="42.9091" y="54.8182" width="310.909" height="310.909" stroke="#C79944" stroke-width="25"/>
<rect x="54" y="63" width="288" height="293" stroke="black" stroke-width="3"/>
<rect x="30" y="41" width="337" height="337" stroke="black" stroke-width="3"/>
<rect x="101.182" y="36.1818" width="194.364" height="38" fill="#C79944" stroke="black" stroke-width="2"/>
<rect x="267.091" y="21" width="20.9091" height="68" fill="#C79944" stroke="black" stroke-width="2"/>
<rect x="110" y="21" width="20.9091" height="68" fill="#C79944" stroke="black" stroke-width="2"/>
</svg>
