<?xml version="1.0" standalone="no"?>
<!DOCTYPE svg PUBLIC "-//W3C//DTD SVG 20010904//EN"
 "http://www.w3.org/TR/2001/REC-SVG-20010904/DTD/svg10.dtd">
<svg version="1.0" xmlns="http://www.w3.org/2000/svg"
 width="700.000000pt" height="700.000000pt" viewBox="0 0 700.000000 700.000000"
 preserveAspectRatio="xMidYMid meet">
<metadata>
Created by potrace 1.14, written by Peter Selinger 2001-2017
</metadata>
<g transform="translate(0.000000,700.000000) scale(0.100000,-0.100000)"
fill="#000000" stroke="none">
<path d="M1909 6643 c0 -5 -1 -64 -2 -133 l-2 -125 -75 0 -75 0 -1 -35 0 -35
-627 -3 -627 -2 0 -2975 0 -2975 28 0 c38 -1 5783 -1 5860 0 l62 0 0 2975 0
2975 -629 0 -630 0 -3 37 -3 38 -58 0 c-33 0 -61 5 -65 12 -4 6 -6 66 -5 132
l1 121 -199 0 c-152 0 -199 -3 -200 -12 -1 -7 -2 -67 -3 -133 l-1 -120 -1172
0 -1173 0 0 132 0 133 -200 0 c-110 0 -200 -3 -201 -7z m-158 -848 c1 -16 2
-48 3 -70 l1 -40 75 0 75 0 3 -78 3 -79 -68 38 c-37 20 -77 43 -88 50 -11 7
-43 25 -71 41 -197 110 -273 158 -260 163 8 3 85 5 171 5 l155 0 1 -30z m3709
26 l75 -1 -40 -21 c-22 -12 -71 -40 -110 -63 -38 -24 -77 -46 -85 -50 -8 -4
-24 -12 -35 -19 -82 -49 -185 -107 -195 -109 -9 -2 -13 13 -12 55 0 31 3 61 6
66 3 5 33 7 66 6 l60 -2 0 68 0 68 48 3 c26 2 70 2 97 1 28 -1 84 -2 125 -2z
m-1029 -141 c1 -3 2 -394 3 -870 l1 -865 -457 -457 c-251 -252 -460 -458 -465
-458 -4 0 -232 224 -507 499 l-498 499 0 820 c-1 451 2 823 5 828 5 9 1916 13
1918 4z m-3263 -148 c103 -60 320 -186 482 -279 162 -94 311 -180 330 -192 19
-11 42 -24 50 -28 8 -4 36 -20 63 -36 l47 -29 0 -569 0 -569 23 0 c18 0 186
-162 683 -660 362 -363 662 -660 666 -660 3 0 299 293 657 651 524 524 649
654 642 667 -5 9 -8 270 -8 579 0 504 2 564 16 576 9 8 59 38 111 67 52 29
115 65 140 80 52 32 835 482 867 498 l21 12 0 -2410 0 -2410 -1071 0 c-1420
-1 -3517 -1 -3739 0 l-178 0 0 2410 c0 1326 3 2410 6 2410 3 0 90 -49 192
-108z m972 -119 c0 -15 -2 -15 -24 -7 -22 9 -20 20 4 20 11 0 20 -6 20 -13z
m2685 0 c-19 -13 -31 -11 -21 5 3 5 13 9 22 9 15 0 15 -2 -1 -14z"/>
</g>
</svg>
